<svg width="130" height="130" viewBox="0 0 130 130" fill="none" xmlns="http://www.w3.org/2000/svg">
<path d="M127.461 124.922H124.922V90.8984C124.922 84.7674 120.553 79.6382 114.766 78.4586V54.3359C114.766 47.3357 109.071 41.6406 102.07 41.6406H101.055V26.4062C101.055 19.4061 95.3596 13.7109 88.3594 13.7109H80.1955C80.8676 12.4175 81.25 10.9502 81.25 9.39453C81.25 4.21434 77.0357 0 71.8555 0C69.1615 0 66.7306 1.14131 65.0163 2.96385C63.3016 1.14131 60.8707 0 58.1768 0C52.9966 0 48.7822 4.21434 48.7822 9.39453C48.7822 10.9502 49.1646 12.4175 49.8367 13.7109H41.6406C34.6404 13.7109 28.9453 19.4061 28.9453 26.4062V41.6406H27.9297C20.9295 41.6406 15.2344 47.3357 15.2344 54.3359V78.4586C9.44658 79.6382 5.07812 84.7674 5.07812 90.8984V124.922H2.53906C1.13674 124.922 0 126.059 0 127.461C0 128.863 1.13674 130 2.53906 130H127.461C128.863 130 130 128.863 130 127.461C130 126.059 128.863 124.922 127.461 124.922ZM20.3125 65.1656C23.1197 66.7136 26.2856 67.5403 29.5801 67.5403C33.9125 67.5403 38.0265 66.1174 41.388 63.4931C48.3049 68.8777 58.0831 68.8766 65 63.4921C71.9169 68.8766 81.6951 68.8777 88.612 63.4931C91.9735 66.1174 96.0873 67.5403 100.42 67.5403C103.714 67.5403 106.88 66.7136 109.688 65.1656V78.2031H20.3125V65.1656ZM71.8555 5.07812C74.2356 5.07812 76.1719 7.01441 76.1719 9.39453C76.1719 11.7746 74.2356 13.7109 71.8555 13.7109C69.6183 13.7109 67.7742 12.0004 67.5606 9.81855C67.567 9.67789 67.5716 9.53672 67.5716 9.39453C67.5716 9.25234 67.567 9.11117 67.5606 8.97051C67.7742 6.78869 69.6183 5.07812 71.8555 5.07812ZM53.8604 9.39453C53.8604 7.01441 55.7967 5.07812 58.1768 5.07812C60.4139 5.07812 62.2578 6.78869 62.4716 8.97051C62.4655 9.11117 62.4609 9.25234 62.4609 9.39453C62.4609 9.53672 62.4655 9.67789 62.4716 9.81855C62.2578 12.0004 60.4139 13.7109 58.1768 13.7109C55.7967 13.7109 53.8604 11.7746 53.8604 9.39453ZM27.9297 46.7188H53.5742C54.9763 46.7188 56.1133 45.582 56.1133 44.1797C56.1133 42.7774 54.9763 41.6406 53.5742 41.6406H34.0234V26.4062C34.0234 22.2061 37.4405 18.7891 41.6406 18.7891H88.3594C92.5595 18.7891 95.9766 22.2061 95.9766 26.4062V41.6406H76.4258C75.0235 41.6406 73.8867 42.7774 73.8867 44.1797C73.8867 45.582 75.0235 46.7188 76.4258 46.7188H102.07C106.27 46.7188 109.688 50.1358 109.688 54.3359V59.0027C107.114 61.2384 103.862 62.4622 100.42 62.4622C96.638 62.4622 93.0828 60.9893 90.4087 58.3152C89.4169 57.3239 87.8097 57.3239 86.8177 58.3152C81.2977 63.8356 72.3153 63.8356 66.7954 58.3152C65.8036 57.3239 64.1964 57.3239 63.2044 58.3152C57.6845 63.8356 48.702 63.8356 43.1821 58.3152C42.1903 57.3239 40.5831 57.3239 39.5911 58.3152C36.917 60.9893 33.3618 62.4622 29.5798 62.4622C26.1376 62.4622 22.8856 61.2384 20.3122 59.0027V54.3359C20.3125 50.1358 23.7296 46.7188 27.9297 46.7188ZM17.7734 83.2812H112.227C116.427 83.2812 119.844 86.6983 119.844 90.8984V100.239C114.501 105.06 106.232 104.897 101.087 99.7516C100.095 98.7604 98.4882 98.7604 97.4962 99.7516C94.9226 102.325 91.5007 103.743 87.861 103.743C84.2215 103.743 80.7996 102.325 78.226 99.7516C77.2342 98.7604 75.627 98.7604 74.6352 99.7516C69.3225 105.064 60.6778 105.064 55.365 99.7516C54.3733 98.7604 52.766 98.7604 51.7743 99.7516C49.2007 102.325 45.7788 103.743 42.1393 103.743C38.4996 103.743 35.0777 102.325 32.5041 99.7516C31.5123 98.7604 29.9051 98.7604 28.9131 99.7516C23.7684 104.897 15.4989 105.06 10.1562 100.24V90.8984C10.1562 86.6983 13.5733 83.2812 17.7734 83.2812ZM10.1562 124.922V106.447C16.6017 110.044 24.7394 109.537 30.7069 104.924C33.9666 107.451 37.9478 108.821 42.139 108.821C46.3303 108.821 50.3115 107.451 53.5707 104.924C56.924 107.516 60.9614 108.812 65 108.812C69.0374 108.812 73.0768 107.516 76.4293 104.924C79.689 107.451 83.67 108.821 87.8612 108.821C92.0524 108.821 96.0334 107.451 99.2931 104.924C105.261 109.537 113.398 110.044 119.844 106.447V124.922H10.1562Z" fill="#4C3526"/>
<path d="M65 46.7188C65.6678 46.7188 66.3229 46.4471 66.7949 45.9746C67.2674 45.5025 67.5391 44.8475 67.5391 44.1797C67.5391 43.5119 67.2674 42.8568 66.7949 42.3846C66.3229 41.9123 65.6678 41.6406 65 41.6406C64.3322 41.6406 63.6771 41.912 63.2049 42.3846C62.7326 42.8568 62.4609 43.5119 62.4609 44.1797C62.4609 44.8475 62.7324 45.5025 63.2049 45.9746C63.6771 46.4471 64.3322 46.7188 65 46.7188Z" fill="#4C3526"/>
</svg>
