<svg width="130" height="130" viewBox="0 0 130 130" fill="none" xmlns="http://www.w3.org/2000/svg">
<path d="M64.9999 122.768C63.1491 122.768 61.3649 122.097 59.9743 120.879C54.7226 116.287 49.6594 111.972 45.1923 108.165L45.1694 108.145C32.0725 96.9843 20.7627 87.3457 12.8937 77.851C4.09721 67.2366 0 57.1725 0 46.1782C0 35.4963 3.66279 25.6416 10.3129 18.428C17.0424 11.1292 26.2763 7.10938 36.3165 7.10938C43.8206 7.10938 50.6929 9.48181 56.742 14.1602C59.7948 16.5218 62.562 19.4119 64.9999 22.7831C67.4388 19.4119 70.2049 16.5218 73.2588 14.1602C79.3079 9.48181 86.1802 7.10938 93.6843 7.10938C103.723 7.10938 112.958 11.1292 119.688 18.428C126.338 25.6416 130 35.4963 130 46.1782C130 57.1725 125.904 67.2366 117.107 77.85C109.238 87.3457 97.9293 96.9833 84.8343 108.143C80.3592 111.956 75.288 116.278 70.0244 120.881C68.6349 122.097 66.8496 122.768 64.9999 122.768ZM36.3165 14.7246C28.4285 14.7246 21.1823 17.8726 15.9108 23.5895C10.5609 29.3926 7.6142 37.4145 7.6142 46.1782C7.6142 55.425 11.0509 63.6948 18.7563 72.9921C26.2039 81.979 37.2815 91.4191 50.1077 102.35L50.1315 102.37C54.6155 106.191 59.6986 110.524 64.989 115.149C70.3111 110.515 75.4021 106.175 79.895 102.348C92.7202 91.4172 103.797 81.979 111.244 72.9921C118.949 63.6948 122.386 55.425 122.386 46.1782C122.386 37.4145 119.439 29.3926 114.089 23.5895C108.818 17.8726 101.571 14.7246 93.6843 14.7246C87.9059 14.7246 82.6007 16.5614 77.9163 20.1836C73.7418 23.4129 70.8338 27.4953 69.1288 30.3517C68.2521 31.8206 66.7088 32.6974 64.9999 32.6974C63.291 32.6974 61.7477 31.8206 60.8709 30.3517C59.167 27.4953 56.259 23.4129 52.0834 20.1836C47.3991 16.5614 42.0938 14.7246 36.3165 14.7246Z" fill="#4C3526"/>
</svg>
