<svg width="130" height="130" viewBox="0 0 130 130" fill="none" xmlns="http://www.w3.org/2000/svg">
<g clip-path="url(#clip0)">
<path d="M123.101 40.1106H101.055C97.2509 40.1106 94.1558 43.2072 94.1558 47.0138V72.3877H85.9099C86.3682 70.7218 86.5381 68.7568 86.4266 66.4701V66.4699C86.2476 56.8064 84.4942 48.6621 81.2144 42.2632C78.6678 37.295 75.6958 34.3164 73.1456 32.5358C76.1389 29.4582 77.8695 25.0801 77.8695 20.0307C77.8695 10.9456 70.6222 3.55469 61.7145 3.55469C52.8067 3.55469 45.5594 10.9456 45.5594 20.0307C45.5594 21.0826 46.412 21.935 47.4637 21.935H48.7576C48.6385 22.6535 48.5751 23.3858 48.5751 24.1295C48.5751 30.532 53.1499 35.883 59.1985 37.0822C58.5645 39.4365 58.2494 42.2124 58.2507 45.3659L53.5011 49.451L41.9446 50.3857L28.6137 45.9789C27.3919 45.5726 26.0071 45.1136 24.8056 45.9799C23.6217 46.8343 23.6217 48.33 23.6217 48.8214V58.7326C23.6217 59.7845 24.4743 60.6369 25.526 60.6369H27.7931L24.3158 72.6527C24.0236 73.6628 24.6055 74.719 25.6158 75.0113C26.6266 75.305 27.6821 74.7216 27.9746 73.7115L31.7583 60.6369H37.1721C30.4385 81.1708 34.2806 94.8771 40.1863 108.748H36.7631L22.5055 92.8065L25.5204 82.3913C25.8129 81.381 25.2309 80.325 24.2206 80.0328C23.2103 79.7405 22.1543 80.3225 21.8618 81.3325L18.9782 91.295C10.0595 91.1463 2.08178 97.2953 0.0487528 106.142C-0.186618 107.167 0.452972 108.189 1.47748 108.424L4.18082 109.046C3.4902 116.22 8.21412 122.988 15.4185 124.646C16.5125 124.898 17.616 125.022 18.7119 125.022C21.4145 125.022 24.0696 124.265 26.4179 122.793C29.1741 121.066 31.2277 118.527 32.339 115.526L34.4721 116.017C35.1076 116.164 35.7104 116.238 36.3127 115.914C36.873 115.612 37.2455 115.068 37.3852 114.453C37.5192 113.83 37.6213 113.196 37.6921 112.557H77.5194C78.793 120.475 85.5304 126.445 93.5769 126.445C101.623 126.445 108.361 120.475 109.635 112.557H111.088C111.088 112.557 111.376 112.56 111.442 112.56C111.987 112.56 112.773 112.5 113.419 111.843C113.743 111.514 114.122 110.926 114.093 109.991C114.039 108.203 113.771 106.475 113.313 104.833C114.83 95.6239 113.37 90.0154 111.207 85.6261C112.574 84.7295 113.481 83.1848 113.481 81.4298V76.196H123.1C126.904 76.196 129.999 73.0994 129.999 69.2928V47.0135C130 43.2072 126.905 40.1106 123.101 40.1106ZM24.3956 119.566C21.9578 121.094 19.0734 121.58 16.2734 120.935H16.2731C11.1193 119.749 7.68092 115.023 7.93153 109.913L28.5876 114.667C27.7329 116.679 26.2869 118.381 24.3956 119.566ZM33.9242 111.983L4.30219 105.167C6.58811 98.9069 12.7397 94.7631 19.4639 95.1196L33.9749 111.344C33.9622 111.559 33.9455 111.771 33.9242 111.983ZM62.6879 78.7988C62.1352 80.2567 62.1352 82.0541 62.1352 84.5422V91.7282H55.1622V81.8695C55.1622 70.7236 61.2452 68.7373 63.9752 68.4095H82.6447C82.5696 70.9391 81.9988 72.7373 80.9151 73.8786C79.6522 75.2085 77.4912 75.8565 74.3082 75.8596L67.4728 75.8667C65.0353 75.8669 63.4255 76.8531 62.6879 78.7988ZM62.1352 95.5365V100.083C62.1179 100.083 62.1001 100.083 62.0819 100.083H48.5555C48.7076 98.6733 49.1469 97.582 49.8682 96.8269C50.9412 95.7041 52.4525 95.5365 53.2579 95.5365H62.1352ZM82.5607 64.6011H65.2425C64.547 62.4127 63.927 60.0163 63.4172 57.5534L68.6824 54.1359C71.5566 52.2694 73.0519 49.6321 72.7848 46.8998C72.5481 44.4778 70.9015 42.3142 68.59 41.3882C66.479 40.5427 64.2068 40.8083 62.1987 42.0923C62.3642 40.2708 62.6724 38.6448 63.1183 37.2645C63.93 37.1808 64.7362 37.0221 65.5279 36.7892C67.1394 36.415 68.6286 35.8186 69.973 35.0276C73.6407 37.2188 81.7073 44.3262 82.5607 64.6011ZM49.5074 18.1266C50.4055 12.042 55.5374 7.36353 61.7145 7.36353C68.5222 7.36353 74.0609 13.0462 74.0609 20.0309C74.0609 25.7118 71.3367 30.2905 66.9442 32.3055V22.2856C66.9442 20.5507 66.2802 18.4224 63.118 18.1345C63.0607 18.1292 63.003 18.1266 62.9454 18.1266H49.5074ZM52.3839 24.1297C52.3839 23.3782 52.4695 22.6441 52.6378 21.9352H62.852C62.9695 21.9479 63.0553 21.9616 63.1168 21.9741C63.1267 22.0446 63.1353 22.1462 63.1353 22.2856V33.426C62.6816 33.4928 62.2251 33.5265 61.7688 33.5268C61.7645 33.5268 61.7602 33.5268 61.7561 33.5268C56.5876 33.522 52.3839 29.3084 52.3839 24.1297ZM49.9152 53.5625L54.4256 53.1977C54.8275 53.1654 55.2086 53.0062 55.5146 52.7434L63.6548 45.742L63.6561 45.7407C64.4432 45.0625 65.2834 44.7147 66.1014 44.7147C66.4656 44.7147 66.8253 44.7837 67.174 44.9234C68.1802 45.3263 68.8947 46.2475 68.9947 47.2697C69.1204 48.5563 68.2729 49.8603 66.609 50.941L57.5382 56.8285H49.9157V53.5625H49.9152ZM41.8674 54.2136L46.1066 53.8708V56.829H41.1806C40.542 56.829 40.3863 56.2984 40.3681 55.8533C40.3576 55.6009 40.3815 54.3354 41.8674 54.2136ZM37.3603 52.8988C36.7867 53.8393 36.5188 54.9395 36.5628 56.0092C36.5742 56.2862 36.6095 56.553 36.6587 56.813C36.6587 56.8184 36.6557 56.8237 36.6567 56.8288H27.4308V49.5993L37.3676 52.8841C37.3646 52.8892 37.3631 52.894 37.3603 52.8988ZM41.1912 60.6374H58.1016C58.4695 60.6374 58.8298 60.5307 59.1383 60.3304L60.0003 59.7708C60.415 61.6035 60.8872 63.3869 61.4016 65.0714C57.5179 66.2177 51.3533 69.9225 51.3533 81.8693V91.9191C50.0173 92.1888 48.4367 92.8119 47.1146 94.1954C45.7209 95.6538 44.9249 97.63 44.734 100.083H40.8924C37.0213 88.9271 35.5492 77.0555 41.1912 60.6374ZM44.33 108.742C43.6262 107.123 42.9477 105.511 42.3089 103.892H62.0816C64.6443 103.892 65.9435 102.725 65.9435 100.425V93.6322V86.4462H80.9745C82.0265 86.4462 82.8788 85.5938 82.8788 84.5419C82.8788 83.49 82.0265 82.6376 80.9745 82.6376H65.9572C65.9816 81.556 66.0509 80.6713 66.2492 80.1488C66.3455 79.8946 66.4287 79.6753 67.4746 79.6753L74.3118 79.6682C78.5939 79.6641 81.6573 78.6282 83.6771 76.5009C83.7705 76.4024 83.8589 76.2991 83.9475 76.1963H96.0603H109.674V81.43C109.674 82.0846 109.122 82.6376 108.469 82.6376H89.5108C88.4589 82.6376 87.6065 83.49 87.6065 84.5419C87.6065 85.5938 88.4589 86.4462 89.5108 86.4462H107.35C108.855 89.2399 110.209 92.7162 110.128 98.2084C106.361 92.9751 100.262 89.6101 93.3397 89.6101C87.7807 89.6101 82.5645 91.7907 78.6515 95.7503C75.1794 99.2636 73.094 103.824 72.6649 108.748L44.33 108.742ZM93.5771 122.636C87.6241 122.636 82.6033 118.347 81.3886 112.557H105.766C104.551 118.347 99.53 122.636 93.5771 122.636ZM107.929 108.749H79.2259H76.49C77.4249 100.138 84.6247 93.4187 93.3397 93.4187C100.991 93.4187 107.417 98.4641 109.545 105.527C109.552 105.549 109.559 105.572 109.566 105.594C109.867 106.607 110.08 107.662 110.195 108.749H107.929ZM126.191 69.293C126.191 70.9995 124.805 72.3877 123.101 72.3877H97.9644V62.5536H126.191V69.293ZM126.191 58.745H97.9644V54.695H126.191V58.745ZM126.191 50.8864H97.9644V47.0138C97.9644 45.3073 99.351 43.9192 101.055 43.9192H123.101C124.805 43.9192 126.191 45.3075 126.191 47.0138V50.8864Z" fill="#4C3526"/>
</g>
<defs>
<clipPath id="clip0">
<rect width="130" height="130" fill="white"/>
</clipPath>
</defs>
</svg>
