<svg width="130" height="130" viewBox="0 0 130 130" fill="none" xmlns="http://www.w3.org/2000/svg">
<path d="M93.0312 86.1046C100.876 80.2213 106.67 72.0191 109.594 62.6596C112.517 53.3002 112.422 43.2581 109.321 33.9558C106.221 24.6536 100.272 16.5627 92.3169 10.8294C84.3623 5.09605 74.8054 2.01086 65 2.01086C55.1945 2.01086 45.6377 5.09605 37.6831 10.8294C29.7285 16.5627 23.7795 24.6536 20.6787 33.9558C17.5779 43.2581 17.4826 53.3002 20.4063 62.6596C23.33 72.0191 29.1244 80.2213 36.9687 86.1046L12.7766 110.276C12.4805 110.575 12.2843 110.958 12.2152 111.373C12.1461 111.788 12.2074 112.214 12.3906 112.592C12.5718 112.967 12.8638 113.277 13.2271 113.481C13.5904 113.684 14.0075 113.771 14.4219 113.73L30.4687 111.962V125.937C30.4707 126.338 30.5914 126.73 30.8155 127.062C31.0396 127.395 31.3572 127.654 31.7281 127.806C31.9692 127.92 32.2335 127.976 32.5 127.969C32.7673 127.97 33.0323 127.919 33.2798 127.818C33.5273 127.717 33.7524 127.568 33.9422 127.38L65 96.3015L96.0578 127.38C96.2476 127.568 96.4727 127.717 96.7202 127.818C96.9677 127.919 97.2327 127.97 97.5 127.969C97.7664 127.976 98.0308 127.92 98.2719 127.806C98.6428 127.654 98.9603 127.395 99.1845 127.062C99.4086 126.73 99.5292 126.338 99.5312 125.937V111.962L115.558 113.73C115.972 113.771 116.389 113.684 116.753 113.481C117.116 113.277 117.408 112.967 117.589 112.592C117.772 112.214 117.834 111.788 117.764 111.373C117.695 110.958 117.499 110.575 117.203 110.276L93.0312 86.1046ZM22.3437 48.7499C22.3437 40.3133 24.8455 32.0662 29.5326 25.0514C34.2197 18.0366 40.8817 12.5692 48.6762 9.34069C56.4706 6.11214 65.0473 5.2674 73.3218 6.9133C81.5963 8.55921 89.1969 12.6218 95.1625 18.5874C101.128 24.553 105.191 32.1536 106.837 40.4281C108.483 48.7026 107.638 57.2794 104.409 65.0738C101.181 72.8682 95.7133 79.5302 88.6985 84.2173C81.6837 88.9044 73.4366 91.4062 65 91.4062C53.6869 91.4062 42.8371 86.912 34.8375 78.9124C26.8379 70.9128 22.3437 60.0631 22.3437 48.7499ZM33.8609 108.164C33.646 107.976 33.3937 107.835 33.1207 107.751C32.8477 107.667 32.5601 107.642 32.2766 107.676L19.7437 109.058L40.3812 88.4202C46.4132 92.2033 53.2417 94.5329 60.3281 95.2249L34.5312 121.042V109.687C34.5334 109.401 34.4748 109.116 34.3593 108.854C34.2438 108.591 34.0739 108.356 33.8609 108.164ZM97.7234 107.656C97.4399 107.621 97.1523 107.647 96.8792 107.731C96.6062 107.815 96.354 107.956 96.1391 108.144C95.9235 108.338 95.7521 108.577 95.6365 108.843C95.5209 109.109 95.4637 109.397 95.4687 109.687V121.042L69.6719 95.2249C76.7583 94.5329 83.5868 92.2033 89.6187 88.4202L110.256 109.058L97.7234 107.656Z" fill="#4C3526"/>
<path d="M103.594 48.7499C103.594 41.1168 101.33 33.6551 97.0895 27.3084C92.8488 20.9616 86.8213 16.015 79.7692 13.0939C72.7171 10.1728 64.9572 9.40857 57.4707 10.8977C49.9843 12.3869 43.1075 16.0626 37.7101 21.46C32.3127 26.8574 28.637 33.7342 27.1478 41.2206C25.6587 48.7071 26.423 56.467 29.344 63.5191C32.2651 70.5712 37.2118 76.5987 43.5585 80.8394C49.9052 85.0802 57.3669 87.3436 65 87.3436C75.2357 87.3436 85.0522 83.2775 92.2899 76.0398C99.5276 68.8021 103.594 58.9856 103.594 48.7499ZM31.9922 38.5936H52.8125C53.0798 38.5952 53.3448 38.544 53.5923 38.4429C53.8398 38.3418 54.0649 38.1928 54.2547 38.0046L62.3797 29.8796C62.5679 29.6898 62.7169 29.4647 62.818 29.2172C62.9191 28.9697 62.9703 28.7047 62.9688 28.4374V22.3436C64.0462 22.3436 65.0795 22.7717 65.8414 23.5335C66.6032 24.2954 67.0312 25.3287 67.0312 26.4061V36.5624C67.0312 37.1011 67.2453 37.6178 67.6262 37.9987C68.0071 38.3796 68.5238 38.5936 69.0625 38.5936H87.3438V42.6561H71.0938V46.7186H87.3438V50.7811H71.0938V54.8436H87.3438V58.9061H71.0938V62.9686H87.3438V64.9999C87.3438 65.5386 87.1297 66.0553 86.7488 66.4362C86.3679 66.8171 85.8512 67.0311 85.3125 67.0311H61.425L53.7266 63.1921C53.4436 63.0471 53.1305 62.9706 52.8125 62.9686H33.5766C31.5265 58.5089 30.4663 53.6582 30.4688 48.7499C30.4732 45.3079 30.9866 41.8855 31.9922 38.5936ZM35.75 67.0311H52.325L60.0234 70.8702C60.3064 71.0152 60.6195 71.0917 60.9375 71.0936H85.3125C86.9287 71.0936 88.4786 70.4516 89.6214 69.3088C90.7642 68.166 91.4062 66.6161 91.4062 64.9999V36.5624C91.4062 36.0237 91.1922 35.507 90.8113 35.1261C90.4304 34.7451 89.9137 34.5311 89.375 34.5311H71.0938V26.4061C71.0938 24.2513 70.2377 22.1846 68.714 20.6609C67.1903 19.1372 65.1236 18.2811 62.9688 18.2811H60.9375C60.3988 18.2811 59.8821 18.4952 59.5012 18.8761C59.1203 19.257 58.9062 19.7737 58.9062 20.3124V27.6046L51.9797 34.5311H33.5766C36.746 27.5165 42.1683 21.7619 48.9823 18.1813C55.7963 14.6008 63.6113 13.3997 71.1861 14.7686C78.7608 16.1376 85.661 19.9982 90.7907 25.7373C95.9204 31.4764 98.9855 38.7649 99.4991 46.4452C100.013 54.1256 97.9454 61.7573 93.6256 68.1283C89.3058 74.4994 82.9811 79.2444 75.6561 81.6098C68.3311 83.9752 60.4257 83.8253 53.1956 81.184C45.9655 78.5427 39.8252 73.5613 35.75 67.0311Z" fill="#4C3526"/>
<path d="M18.2812 22.3437C18.6011 22.3556 18.9193 22.2918 19.2098 22.1574C19.5003 22.023 19.755 21.8219 19.953 21.5704C20.151 21.319 20.2868 21.0242 20.3493 20.7103C20.4117 20.3964 20.3991 20.0721 20.3125 19.764L18.5859 13.9343L21.5109 11.8015C21.8224 11.5732 22.0623 11.2609 22.2027 10.9011C22.343 10.5414 22.3778 10.1491 22.3031 9.77022C22.2402 9.37932 22.0644 9.01533 21.7973 8.72302C21.5303 8.43071 21.1836 8.22282 20.8 8.12491L16.0672 6.98741L14.0359 3.10772C13.8619 2.78526 13.6039 2.51588 13.2892 2.32813C12.9745 2.14038 12.6149 2.04126 12.2484 2.04126C11.882 2.04126 11.5224 2.14038 11.2077 2.32813C10.893 2.51588 10.635 2.78526 10.4609 3.10772L8.42968 6.98741L3.575 8.12491C3.18386 8.21584 2.82845 8.42068 2.55368 8.71352C2.27891 9.00637 2.09711 9.37409 2.03125 9.77022C1.95656 10.1491 1.99141 10.5414 2.13172 10.9011C2.27202 11.2609 2.51197 11.5732 2.82343 11.8015L5.78906 13.9343L4.0625 19.764C3.94862 20.1696 3.96369 20.6006 4.10562 20.9973C4.24756 21.394 4.50933 21.7367 4.85468 21.978C5.1987 22.223 5.6105 22.3546 6.03281 22.3546C6.45511 22.3546 6.86692 22.223 7.21093 21.978L12.1875 18.2812L17.0828 21.8765C17.4211 22.1579 17.8417 22.3219 18.2812 22.3437ZM15.0516 11.4968C14.7029 11.7314 14.4355 12.0683 14.2863 12.4612C14.1372 12.8541 14.1136 13.2836 14.2187 13.6905L14.6453 15.1937L13.3859 14.2187C13.0381 13.9644 12.6184 13.8274 12.1875 13.8274C11.7566 13.8274 11.3369 13.9644 10.9891 14.2187L9.64843 15.1937L10.1562 13.6905C10.2698 13.2919 10.2586 12.868 10.1243 12.4759C9.98993 12.0837 9.73883 11.7421 9.40468 11.4968L8.73437 11.0702L10.1562 10.7046C10.4265 10.6354 10.6795 10.5114 10.8997 10.3401C11.1199 10.1689 11.3024 9.95415 11.4359 9.70928L12.1875 8.36866L12.9187 9.70928C13.0545 9.9563 13.2402 10.1724 13.464 10.3437C13.6878 10.5151 13.9449 10.638 14.2187 10.7046L15.6609 11.0702L15.0516 11.4968Z" fill="#4C3526"/>
<path d="M127.969 9.77024C127.903 9.37411 127.721 9.00639 127.446 8.71355C127.172 8.4207 126.816 8.21587 126.425 8.12493L121.692 6.92649L119.661 3.04681C119.487 2.72434 119.229 2.45497 118.914 2.26722C118.599 2.07947 118.24 1.98035 117.873 1.98035C117.507 1.98035 117.147 2.07947 116.833 2.26722C116.518 2.45497 116.26 2.72434 116.086 3.04681L114.055 6.92649L109.2 8.12493C108.825 8.21845 108.484 8.41724 108.217 8.69792C107.951 8.9786 107.771 9.32949 107.697 9.70931C107.622 10.0882 107.657 10.4805 107.797 10.8402C107.938 11.2 108.178 11.5123 108.489 11.7406L111.414 13.8734L109.688 19.764C109.574 20.1696 109.589 20.6006 109.731 20.9973C109.873 21.394 110.134 21.7367 110.48 21.9781C110.824 22.223 111.236 22.3546 111.658 22.3546C112.08 22.3546 112.492 22.223 112.836 21.9781L117.812 18.2812L122.708 21.8765C123.046 22.1579 123.467 22.3219 123.906 22.3437C124.226 22.3556 124.544 22.2918 124.835 22.1574C125.125 22.0231 125.38 21.8219 125.578 21.5705C125.776 21.319 125.912 21.0243 125.974 20.7103C126.037 20.3964 126.024 20.0721 125.937 19.764L124.292 13.9343L127.217 11.8015C127.521 11.5683 127.753 11.2538 127.886 10.8944C128.019 10.535 128.048 10.1452 127.969 9.77024ZM120.717 11.4968C120.361 11.7258 120.086 12.0604 119.929 12.4537C119.772 12.8471 119.743 13.2795 119.844 13.6906L120.27 15.1937L119.011 14.2187C118.663 13.9645 118.243 13.8275 117.812 13.8275C117.382 13.8275 116.962 13.9645 116.614 14.2187L115.273 15.1937L115.781 13.6906C115.895 13.2919 115.884 12.868 115.749 12.4759C115.615 12.0838 115.364 11.7421 115.03 11.4968L114.441 11.0702L115.781 10.7046C116.051 10.6355 116.305 10.5114 116.525 10.3402C116.745 10.1689 116.927 9.95418 117.061 9.70931L117.812 8.36868L118.544 9.70931C118.677 9.95418 118.86 10.1689 119.08 10.3402C119.3 10.5114 119.553 10.6355 119.823 10.7046L121.266 11.0702L120.717 11.4968Z" fill="#4C3526"/>
</svg>
